<?xml version="1.0" standalone="no"?>
<!DOCTYPE svg PUBLIC "-//W3C//DTD SVG 20010904//EN"
 "http://www.w3.org/TR/2001/REC-SVG-20010904/DTD/svg10.dtd">
<svg version="1.0" xmlns="http://www.w3.org/2000/svg"
 width="260.000000pt" height="260.000000pt" viewBox="0 0 260.000000 260.000000"
 preserveAspectRatio="xMidYMid meet">
<metadata>
Created by potrace 1.11, written by Peter Selinger 2001-2013
</metadata>
<g transform="translate(0.000000,260.000000) scale(0.100000,-0.100000)"
fill="#000000" stroke="none">
<path d="M1105 2586 c-300 -51 -538 -175 -745 -392 -174 -181 -282 -389 -337
-644 -25 -119 -25 -381 0 -500 56 -260 164 -465 345 -652 190 -196 410 -317
682 -375 119 -25 381 -25 500 0 467 100 836 425 984 868 47 143 61 232 61 409
0 121 -5 187 -18 250 -56 260 -164 465 -345 652 -187 193 -408 316 -672 373
-103 22 -353 28 -455 11z m562 -447 c360 -90 632 -390 698 -768 47 -265 -17
-551 -170 -766 -50 -70 -169 -187 -238 -234 -247 -168 -591 -198 -856 -74
-260 121 -450 355 -527 648 -22 85 -27 121 -27 240 0 207 44 372 145 535 210
342 606 512 975 419z"/>
<path d="M1397 1730 c-309 -52 -550 -261 -623 -540 -28 -105 -23 -255 11 -358
98 -294 363 -489 690 -509 344 -20 662 186 771 502 24 70 28 96 28 200 1 134
-16 204 -80 325 -141 268 -486 432 -797 380z"/>
</g>
</svg>
